Coordinates
version=1
nRows=26
nColumns=24
inDegrees=yes

Units are S.I. units (second, meters, Newtons, ...)
Angles are in degrees.

endheader
time	pelvis_tilt	pelvis_list	pelvis_rotation	pelvis_tx	pelvis_ty	pelvis_tz	hip_flexion_r	hip_adduction_r	hip_rotation_r	knee_angle_r	ankle_angle_r	subtalar_angle_r	mtp_angle_r	hip_flexion_l	hip_adduction_l	hip_rotation_l	knee_angle_l	ankle_angle_l	subtalar_angle_l	mtp_angle_l	lumbar_extension	lumbar_bending	lumbar_rotation
      1.42900000	     -3.59649366	     -3.68228989	    -11.18219721	      0.83864208	      0.97360372	      0.33701139	    -18.48823438	      6.34183148	      8.86946023	     -9.99323031	     17.51276153	      0.14676287	      3.25298660	     34.67289313	     -7.81651154	    -13.15268962	      0.61002852	     12.62457807	     -1.73177205	     -2.06749453	     -3.19670598	      1.66775048	      8.92870138
      1.43316667	     -3.63752409	     -3.57987507	    -11.32998087	      0.84508481	      0.97253562	      0.33694596	    -18.74092192	      6.09996855	      8.86097979	    -10.09636935	     17.33874408	      0.27200817	      3.39582636	     34.75849587	     -7.76605718	    -13.01531580	     -0.02103782	     13.13543421	     -1.87371744	     -1.98844556	     -3.08323364	      1.54014919	      9.06070852
      1.43733333	     -3.70226477	     -3.45636726	    -11.54711607	      0.85157095	      0.97149060	      0.33695276	    -18.92777472	      5.81709897	      8.88037747	    -10.27837712	     17.18611462	      0.48585613	      3.92560978	     34.84407742	     -7.73720008	    -13.03411551	     -0.65811951	     13.64070125	     -1.88122747	     -1.73218343	     -2.90207026	      1.39603501	      9.41480661
      1.44150000	     -3.73531730	     -3.34279734	    -11.70519351	      0.85811308	      0.97047345	      0.33687059	    -19.15556553	      5.55620625	      8.85405121	    -10.44148126	     16.93653607	      0.57155428	      3.98241890	     34.88001413	     -7.66660469	    -12.87514491	     -1.26312666	     14.08749865	     -2.10697844	     -1.68792443	     -2.80611669	      1.27599056	      9.45892523
      1.44566667	     -3.78605236	     -3.23015248	    -11.85978468	      0.86472126	      0.96944783	      0.33678134	    -19.35502543	      5.29972913	      8.82031999	    -10.62609884	     16.69034552	      0.69504601	      4.07822131	     34.91968753	     -7.59315420	    -12.69419601	     -1.86216927	     14.50116179	     -2.29926537	     -1.62356000	     -2.63943274	      1.14687185	      9.60994733
      1.44983333	     -3.85114992	     -3.10164246	    -12.02394173	      0.87136205	      0.96841388	      0.33666352	    -19.50185474	      5.01836987	      8.71506819	    -10.87080719	     16.44181650	      0.95417867	      7.60568379	     34.96767442	     -7.50557747	    -12.53794793	     -2.45927669	     14.79041693	     -2.55468678	      0.29243338	     -2.48159570	      1.01908620	      9.89384735
      1.45400000	     -3.90215483	     -2.95738661	    -12.16592371	      0.87809729	      0.96742623	      0.33654090	    -19.68271054	      4.73210644	      8.67926882	    -11.07640979	     16.12438207	      1.04195624	      7.62749795	     34.98661812	     -7.38491962	    -12.37481653	     -3.03856617	     15.09234956	     -2.74384491	      0.31719369	     -2.30658534	      0.85370687	     10.07578752
      1.45816667	     -3.96286283	     -2.80688805	    -12.32857365	      0.88485102	      0.96645830	      0.33641392	    -19.81006311	      4.43155601	      8.60588530	    -11.36539608	     15.85868710	      1.22475024	      7.72800518	     34.99228253	     -7.26140403	    -12.19416270	     -3.58188848	     15.30747430	     -3.03425134	      0.39059132	     -2.11473301	      0.70552816	     10.36535759
      1.46233333	     -4.00431000	     -2.64824186	    -12.45958989	      0.89168349	      0.96552718	      0.33625357	    -19.96463995	      4.13077873	      8.53633372	    -11.63549844	     15.52695955	      1.33196478	      7.76670403	     34.98355376	     -7.10895861	    -12.02428839	     -4.12950216	     15.49851543	     -3.23649452	      0.42914800	     -1.93412733	      0.52808755	     10.44309426
      1.46650000	     -4.07373330	     -2.47128751	    -12.58774193	      0.89852579	      0.96458128	      0.33603433	    -20.03819771	      3.81066213	      8.37385120	    -11.99862256	     15.26752725	      1.60888897	      7.99588113	     34.97994701	     -6.92244613	    -11.72928513	     -4.61484808	     15.49069827	     -3.73757148	      0.58695968	     -1.72755349	      0.35235622	     10.76109462
      1.47066667	     -4.09970606	     -2.28315014	    -12.68026206	      0.90544876	      0.96372777	      0.33579401	    -20.18172923	      3.48685130	      8.25983511	    -12.29503562	     14.80993721	      1.69371730	      9.98540654	     34.92218502	     -6.69423134	    -11.41323461	     -5.06029029	     15.34340943	     -4.27513678	      1.91626467	     -1.56709921	      0.13857055	     10.69962722
      1.47483333	     -4.15357172	     -2.09104683	    -12.76778009	      0.91239380	      0.96285412	      0.33553574	    -20.25843532	      3.16936334	      8.10641302	    -12.67111762	     14.42028000	      1.80197665	     10.01676192	     34.93379542	     -6.48064140	    -11.26230300	     -5.59455239	     15.35823381	     -4.41348673	      1.94644886	     -1.33997985	     -0.06878143	     10.86401377
      1.47900000	     -4.22582344	     -1.87219013	    -12.85631388	      0.91933712	      0.96199027	      0.33522190	    -20.26144882	      2.82035471	      7.87617088	    -13.14248225	     14.12800405	      2.11141545	     10.21328030	     34.93882813	     -6.21991339	    -10.93687429	     -6.04145454	     15.05446730	     -5.00202958	      2.08124514	     -1.11073456	     -0.29682689	     11.19429046
      1.48316667	     -4.26840140	     -1.64203113	    -12.90520337	      0.92633740	      0.96120085	      0.33486111	    -20.30135051	      2.47101819	      7.65225464	    -13.59019319	     13.71277824	      2.27862874	     10.50320013	     34.91368597	     -5.91660683	    -10.56750978	     -6.46564223	     14.66624890	     -5.64237860	      2.28539993	     -0.90435367	     -0.54884335	     11.27071711
      1.48733333	     -4.30507447	     -1.42109671	    -12.93166146	      0.93335323	      0.96046205	      0.33444154	    -20.33527501	      2.13502233	      7.40976062	    -14.05315034	     13.20574483	      2.48312454	     11.04698019	     34.90205449	     -5.60766966	    -10.17862365	     -6.91797114	     14.25453205	     -6.25298170	      2.65347053	     -0.71063627	     -0.78357890	     11.36538591
      1.49150000	     -4.35660385	     -1.14789392	    -12.94973571	      0.94039546	      0.95973237	      0.33401781	    -20.30973938	      1.75757930	      7.13407904	    -14.58759937	     12.77076023	      2.60338627	     11.45165674	     34.92809529	     -5.25567798	     -9.89970486	     -7.38662209	     13.74669105	     -6.79785067	      2.91744308	     -0.47150444	     -1.08898825	     11.43884446
      1.49566667	     -4.39360293	     -0.87396722	    -12.92970057	      0.94744981	      0.95906335	      0.33351874	    -20.28672119	      1.38682769	      6.81705978	    -15.13745252	     12.24472389	      2.75420650	     11.90423470	     34.95502778	     -4.87335689	     -9.53301961	     -7.86968031	     13.15544226	     -7.43778680	      3.19850964	     -0.26033283	     -1.39670576	     11.47670287
      1.49983333	     -4.42489828	     -0.58900693	    -12.88906715	      0.95451604	      0.95844546	      0.33296455	    -20.24673450	      1.00954354	      6.47253634	    -15.72192034	     11.68198414	      2.90398553	     12.39260765	     34.99657686	     -4.46635059	     -9.14856161	     -8.37446153	     12.51602892	     -8.11206001	      3.48220364	     -0.05490536	     -1.72038106	     11.50452850
      1.50400000	     -4.43015087	     -0.32667013	    -12.79817023	      0.96156161	      0.95791731	      0.33230240	    -20.22636662	      0.66137262	      6.07302544	    -16.31400229	     11.00865692	      3.10461572	     13.25498370	     35.03176333	     -4.04260530	     -8.66664826	     -8.90666928	     11.75959942	     -8.82363814	      3.96742269	      0.09078525	     -2.00140926	     11.50959052
      1.50816667	     -4.43641714	     -0.01922273	    -12.71213186	      0.96865809	      0.95742088	      0.33169773	    -20.18078264	      0.27953199	      5.70508882	    -16.94038149	     10.30922211	      3.08023451	     13.35276390	     35.14395303	     -3.62614626	     -8.57935560	     -9.61002350	     11.34223858	     -8.91318897	      4.01988017	      0.29702379	     -2.35917930	     11.50713228
      1.51233333	     -4.46655114	      0.30880269	    -12.58476797	      0.97572321	      0.95693786	      0.33094707	    -20.06557682	     -0.12037905	      5.23003204	    -17.62811068	      9.54251977	      3.21037828	     18.43355145	     35.24357343	     -3.11904738	     -8.04513671	    -10.18593463	     10.46095900	     -9.87069239	      6.38723642	      0.47922334	     -2.74700527	     11.44941246
      1.51650000	     -4.43259377	      0.65161558	    -12.44138521	      0.98282035	      0.95659716	      0.33016480	    -19.99850361	     -0.55017741	      4.69303153	    -18.35645988	      8.84344565	      3.44118495	     18.53189473	     35.32675284	     -2.60264642	     -7.73127277	    -10.88746695	      9.81728094	    -10.38024158	      6.38504281	      0.60693790	     -3.15009462	     11.39950164
      1.52066667	     -4.41185174	      0.98949156	    -12.26329034	      0.98989947	      0.95628280	      0.32931837	    -19.90343951	     -0.95684195	      4.15585764	    -19.10732858	      8.05819270	      3.58079423	     18.72079707	     35.45076452	     -2.07207885	     -7.35951861	    -11.64566854	      9.19429043	    -10.94243292	      6.39796953	      0.74017727	     -3.55158352	     11.31745410
      1.52483333	     -4.36465552	      1.34079722	    -12.06767732	      0.99700092	      0.95605325	      0.32842839	    -19.81522095	     -1.38401974	      3.56949169	    -19.88991276	      7.23409707	      3.73734359	     18.99397285	     35.56741169	     -1.51937781	     -7.03609894	    -12.44937926	      8.60973814	    -11.44331878	      6.43209841	      0.84325437	     -3.97307328	     11.22562975
      1.52900000	     -4.31033673	      1.71512847	    -11.85627967	      1.00410793	      0.95587554	      0.32750030	    -19.70562705	     -1.83520151	      2.94806560	    -20.71817525	      6.37946120	      3.85424392	     19.26641802	     35.69462059	     -0.93996013	     -6.75733802	    -13.30142709	      8.12792194	    -11.86159009	      6.46064502	      0.94573019	     -4.43576513	     11.10361262
      1.53316667	     -4.22452696	      2.07808448	    -11.61923810	      1.01121809	      0.95579130	      0.32650956	    -19.61964001	     -2.28091552	      2.28539304	    -21.56037721	      5.44619588	      3.99510064	     19.61040224	     35.80389058	     -0.35298048	     -6.48567587	    -14.19671594	      7.67473162	    -12.24878176	      6.48692293	      0.99474779	     -4.88046570	     10.97814605
